<svg width="25" height="25" viewBox="0 0 25 25" fill="none" xmlns="http://www.w3.org/2000/svg">
<path d="M12.5048 24.8373C19.3264 24.8373 24.8563 19.3074 24.8563 12.4858C24.8563 5.66429 19.3264 0.134338 12.5048 0.134338C5.68327 0.134338 0.15332 5.66429 0.15332 12.4858C0.15332 19.3074 5.68327 24.8373 12.5048 24.8373Z" fill="#C1E8F7"/>
<path d="M21.03 17.9021C20.8935 18.1141 19.4928 21.2276 19.1893 22.6485C19.1704 22.7367 19.1526 22.8206 19.1348 22.9048C20.3504 22.1295 21.4211 21.1486 22.2978 20.0092C21.8381 19.0399 21.4313 18.2901 21.03 17.9021Z" fill="#003580"/>
<path d="M12.5356 16.101C13.7124 16.101 14.5012 15.4575 14.9052 14.9218C14.9417 14.6105 14.9087 14.3086 14.7741 14.0551L14.6423 13.6185C14.5919 13.6833 14.5373 13.7457 14.4742 13.8028C13.6934 14.5082 13.393 14.7772 12.5356 14.7807C11.6782 14.7772 11.3778 14.5082 10.597 13.8028C10.5354 13.7472 10.4819 13.6866 10.4325 13.6237L10.3022 14.0551C10.1665 14.3107 10.134 14.6156 10.172 14.9297C10.5777 15.4638 11.3645 16.101 12.5356 16.101Z" fill="#D59A80"/>
<path d="M10.4201 13.6065L10.4199 13.6072C10.4201 13.6072 10.4203 13.6072 10.4205 13.6071C10.4205 13.6071 10.4202 13.6067 10.4201 13.6065Z" fill="#D59A80"/>
<path d="M14.6574 13.6077C14.6568 13.6047 14.6562 13.6017 14.6556 13.5987C14.6538 13.6011 14.6522 13.6037 14.6504 13.606C14.6527 13.6066 14.6551 13.6072 14.6574 13.6077Z" fill="#D59A80"/>
<path d="M10.4394 13.6027L10.433 13.6237C10.4824 13.6866 10.536 13.7472 10.5975 13.8028C11.3783 14.5082 11.6787 14.7772 12.5361 14.7807C13.3935 14.7772 13.6939 14.5082 14.4747 13.8028C14.5379 13.7457 14.5925 13.6833 14.6428 13.6185L14.638 13.6027C14.6425 13.6038 14.6472 13.6049 14.6517 13.606C14.6535 13.6037 14.655 13.6012 14.6568 13.5987C15.2754 12.7754 14.9654 11.4311 15.4172 11.4487C16.1131 11.476 16.4149 10.8732 16.2514 10.0936C16.1493 9.60661 15.7838 9.64503 15.5846 9.79159C15.5279 9.95352 15.4721 10.0748 15.4339 10.0633C15.3239 10.0301 15.3717 9.07272 15.5439 7.95202C15.7272 6.75868 14.2608 7.27876 13.2343 7.24561C12.2077 7.21248 9.75148 6.99074 9.56819 7.55427C9.38489 8.11775 9.8248 9.84149 9.67816 9.90776C9.65812 9.91683 9.63735 9.90781 9.61615 9.88709C9.62315 9.94727 9.62167 9.96705 9.60757 9.93202C9.51761 9.70796 8.95186 9.46885 8.82083 10.0936C8.65734 10.8732 8.95908 11.476 9.65501 11.4487C10.1082 11.431 9.79457 12.7839 10.4209 13.6065C10.4211 13.6067 10.4212 13.6069 10.4212 13.6069C10.4273 13.6057 10.4335 13.6041 10.4394 13.6027Z" fill="#E0A384"/>
<path d="M9.67698 9.90778C9.82362 9.84151 9.3837 8.11777 9.56701 7.55429C9.7503 6.99076 12.2066 7.2125 13.2331 7.24563C14.2596 7.27879 15.726 6.75869 15.5427 7.95204C15.3706 9.07275 15.3228 10.0301 15.4327 10.0632C15.4709 10.0748 15.5267 9.95354 15.5834 9.79161C15.69 9.48689 15.7993 9.03566 15.7993 9.03566C16.3126 8.73732 16.1293 6.5827 16.1293 6.25116C16.1293 5.9197 15.616 5.35621 15.3961 5.35621C15.1761 5.35621 15.3594 4.42802 13.8563 4.03022C12.3532 3.63247 11.0334 3.83135 10.3002 4.19596C9.56701 4.56061 9.01707 5.19043 8.68714 5.28989C8.35719 5.38935 8.79713 5.62136 8.5405 5.85342C8.28386 6.08544 8.72382 6.38378 8.79713 6.84785C8.87045 7.31195 9.05376 8.80364 9.2004 8.96937C9.32699 9.11247 9.48089 9.75621 9.61497 9.88712C9.63616 9.90784 9.65694 9.91686 9.67698 9.90778Z" fill="#554C44"/>
<path d="M12.5542 19.9054C12.5441 19.9142 12.5336 19.9242 12.5244 19.9299C12.5323 19.9275 12.5424 19.9186 12.5542 19.9054Z" fill="white"/>
<path d="M14.1486 16.5147C14.2949 16.3592 14.4318 16.1709 14.5487 15.9649C13.5714 16.6693 12.5355 16.6048 12.5355 16.6048C12.5355 16.6048 11.5022 16.6626 10.5283 15.9665C10.645 16.1719 10.7816 16.3596 10.9276 16.5147C12.0495 18.0556 12.5242 19.9299 12.5242 19.9299L12.5243 19.93C12.5242 19.93 13.0267 18.0556 14.1486 16.5147Z" fill="white"/>
<path d="M12.5244 19.93L12.5248 19.9307H12.5252L12.5244 19.93Z" fill="white"/>
<path d="M12.5355 16.6048C12.5355 16.6048 13.5713 16.6692 14.5487 15.9649C14.7317 15.6421 14.8637 15.2759 14.9051 14.9218C14.5011 15.4575 13.7123 16.101 12.5355 16.101C11.3644 16.101 10.5776 15.4638 10.1719 14.9297C10.2145 15.2819 10.3462 15.6457 10.5283 15.9664C11.5022 16.6626 12.5355 16.6048 12.5355 16.6048Z" fill="#EAEAEA"/>
<path d="M3.97237 17.891C3.56939 18.2737 3.16131 19.0229 2.7002 19.9943C3.57906 21.1402 4.65425 22.1265 5.87552 22.9052C5.85739 22.8209 5.83931 22.7368 5.82044 22.6485C5.51102 21.2002 4.06076 17.9913 3.97237 17.891Z" fill="#003580"/>
<path d="M21.0302 17.9021C21.0328 17.898 21.0359 17.8929 21.0376 17.891C21.126 17.7907 20.1177 17.2462 18.8359 16.6716C18.0311 16.3108 17.3484 15.8226 16.6809 15.4586C16.798 15.6948 16.9148 15.9615 17.0302 16.2657C17.0302 16.2657 15.0855 16.6155 14.8756 16.68C14.6657 16.7446 14.847 16.9399 14.5772 17.227C13.3507 18.5317 12.8055 19.6873 12.5543 19.9054C12.5425 19.9186 12.5324 19.9275 12.5245 19.9299L12.5244 19.93H12.6377V24.834C15.0279 24.8087 17.254 24.1042 19.135 22.9048C19.1529 22.8206 19.1707 22.7367 19.1895 22.6485C19.493 21.2276 20.8938 18.1141 21.0302 17.9021ZM18.7844 22.8152H13.2414V22.5336H18.7844V22.8152Z" fill="#003C8F"/>
<path d="M12.373 19.93H12.525H12.5249C12.2877 19.7835 11.7758 18.5844 10.4998 17.227C10.23 16.9399 10.4114 16.7446 10.2014 16.68C9.99152 16.6155 8.04681 16.2657 8.04681 16.2657C8.14522 16.0064 8.24461 15.7747 8.34434 15.5653C7.6639 15.8923 6.95797 16.3205 6.17479 16.6716C4.89309 17.2462 3.88487 17.7906 3.97316 17.891C4.06154 17.9913 5.51181 21.2002 5.82123 22.6485C5.84009 22.7368 5.85818 22.8209 5.87631 22.9052C7.75715 24.1044 9.983 24.8087 12.373 24.834V19.93ZM6.23796 22.8152V22.5336H11.7809V22.8152H6.23796Z" fill="#003C8F"/>
<path d="M11.7793 22.5336H6.23633V22.8152H11.7793V22.5336Z" fill="#EAEAEA"/>
<path d="M18.7842 22.5336H13.2412V22.8152H18.7842V22.5336Z" fill="#EAEAEA"/>
<path d="M12.6383 19.9301H12.525H12.373V24.834C12.4174 24.8345 12.4612 24.8373 12.5057 24.8373C12.5502 24.8373 12.5939 24.8345 12.6383 24.834V19.9301Z" fill="#EAEAEA"/>
<path d="M8.0459 16.2657C8.0459 16.2657 9.99062 16.6154 10.2005 16.68C10.4105 16.7446 10.2291 16.9399 10.4989 17.227C11.7749 18.5844 12.2868 19.7835 12.524 19.93H12.5241C12.5241 19.93 12.0493 18.0556 10.9274 16.5147C10.7814 16.3596 10.6448 16.1719 10.5281 15.9664C10.346 15.6457 10.2143 15.2819 10.1717 14.9297C10.1337 14.6156 10.1663 14.3107 10.3019 14.0551L10.4322 13.6237L10.4386 13.6027C10.4327 13.6041 10.4265 13.6056 10.4205 13.6071C10.4203 13.6072 10.4201 13.6072 10.4199 13.6072C9.89309 13.7365 9.10812 13.9599 8.34343 15.5653C8.2437 15.7747 8.14431 16.0064 8.0459 16.2657Z" fill="#002664"/>
<path d="M14.6376 13.6027L14.6424 13.6185L14.7742 14.0551C14.9088 14.3086 14.9418 14.6105 14.9053 14.9219C14.8638 15.2759 14.7319 15.6421 14.5488 15.9649C14.432 16.1709 14.2951 16.3592 14.1487 16.5147C13.0269 18.0556 12.5244 19.9298 12.5244 19.9298V19.93C12.5244 19.93 12.5245 19.9299 12.5246 19.9299C12.5337 19.9242 12.5442 19.9142 12.5543 19.9054C12.8055 19.6873 13.3508 18.5317 14.5772 17.227C14.8471 16.9399 14.6657 16.7446 14.8756 16.68C15.0855 16.6155 17.0302 16.2657 17.0302 16.2657C16.9148 15.9615 16.798 15.6948 16.6809 15.4586C15.9337 13.9517 15.1732 13.7342 14.6582 13.6077C14.6559 13.6072 14.6535 13.6066 14.6512 13.606C14.6467 13.6049 14.642 13.6038 14.6376 13.6027Z" fill="#002664"/>
</svg>
